<?xml version="1.0" encoding="utf-8"?>
<!-- Generator: Adobe Illustrator 16.0.0, SVG Export Plug-In . SVG Version: 6.00 Build 0)  -->
<!DOCTYPE svg PUBLIC "-//W3C//DTD SVG 1.1//EN" "http://www.w3.org/Graphics/SVG/1.1/DTD/svg11.dtd">
<svg version="1.1" id="Layer_1" xmlns="http://www.w3.org/2000/svg" xmlns:xlink="http://www.w3.org/1999/xlink" x="0px" y="0px"
	 width="180px" height="180px" viewBox="0 0 180 180" enable-background="new 0 0 180 180" xml:space="preserve">
<path id="Rectangle-11" fill="#F1F7FB" stroke="#585D75" stroke-width="2" d="M18,123.998c0-1.104,0.901-1.998,2.008-1.998h139.984
	c1.109,0,2.008,0.887,2.008,1.998V126c0,2.209-1.795,4-4.002,4H22.001c-2.21,0-4.001-1.795-4.001-4V123.998z"/>
<path id="Rectangle-11_1_" fill="#F1F7FB" stroke="#585D75" stroke-width="2" d="M28,53V42.99v0.25c0-2.756,2.231-5.24,4.995-5.24
	h114.01c2.759,0,4.995,2.247,4.995,5.003V122H28V95 M28,88V71"/>
<g id="Group-2" transform="translate(35.000000, 47.000000)">
	<path fill="none" stroke="#585D75" stroke-width="2" d="M-1,1.999V74v1h1h110h1v-1V1.999C111,0.343,109.654-1,107.997-1H2.003
		C0.337-1-1,0.339-1,1.999z"/>
	<defs>
		<filter id="Adobe_OpacityMaskFilter" filterUnits="userSpaceOnUse" x="-1" y="-1" width="112" height="60.5">
			<feColorMatrix  type="matrix" values="1 0 0 0 0  0 1 0 0 0  0 0 1 0 0  0 0 0 1 0"/>
		</filter>
	</defs>
	<mask maskUnits="userSpaceOnUse" x="-1" y="-1" width="112" height="60.5" id="mask-2_2_">
		<g filter="url(#Adobe_OpacityMaskFilter)">
			<path id="path-1_2_" fill="#FFFFFF" d="M0,1.999C0,0.895,0.885,0,2.003,0h105.994C109.104,0,110,0.896,110,1.999V74H0V1.999z"/>
		</g>
	</mask>
	<path id="Rectangle-11_2_" mask="url(#mask-2_2_)" fill="#D9E2F0" d="M-1,0.996C-1-0.106-0.099-1,0.992-1h108.016
		C110.109-1,111-0.096,111,0.992v34.582L-1,59.5V0.996z"/>
</g>
<g id="Oval-3">
	<g>
		<circle id="path-3_11_" cx="149" cy="41" r="17"/>
	</g>
	<g>
		<circle id="path-3_1_" fill="#0E7AE8" stroke="#585D75" stroke-width="2" cx="149" cy="41" r="17"/>
	</g>
</g>
<g id="Group-9" transform="translate(61.000000, 63.000000)">
	<g id="Rectangle-12">
		<g>
			<path id="path-5_11_" d="M5,0h48c2.762,0,5,2.239,5,5v80c0,2.762-2.238,5-5,5H5c-2.761,0-5-2.238-5-5V5C0,2.239,2.239,0,5,0z"/>
		</g>
		<g>
			<path id="path-5_1_" fill="#FFFFFF" stroke="#585D75" stroke-width="2" d="M5,0h48c2.762,0,5,2.239,5,5v80c0,2.762-2.238,5-5,5H5
				c-2.761,0-5-2.238-5-5V5C0,2.239,2.239,0,5,0z"/>
		</g>
	</g>
	<path id="Rectangle-13" fill="#E2E6F1" d="M10,20h38c0.553,0,1,0.447,1,1v8c0,0.553-0.447,1-1,1H10c-0.552,0-1-0.447-1-1v-8
		C9,20.447,9.448,20,10,20z"/>
	<path id="Rectangle-13_1_" fill="#E2E6F1" d="M20,10h18c0.553,0,1,0.448,1,1v2c0,0.553-0.447,1-1,1H20c-0.552,0-1-0.447-1-1v-2
		C19,10.448,19.448,10,20,10z"/>
	<path id="Rectangle-13_2_" fill="#E2E6F1" d="M10,35h38c0.553,0,1,0.447,1,1v8c0,0.553-0.447,1-1,1H10c-0.552,0-1-0.447-1-1v-8
		C9,35.447,9.448,35,10,35z"/>
	<path id="Rectangle-13_3_" fill="#E2E6F1" d="M10,50h38c0.553,0,1,0.447,1,1v8c0,0.553-0.447,1-1,1H10c-0.552,0-1-0.447-1-1v-8
		C9,50.447,9.448,50,10,50z"/>
	<path id="Rectangle-13_4_" fill="#0E7AE8" d="M10,70h38c0.553,0,1,0.447,1,1v8c0,0.553-0.447,1-1,1H10c-0.552,0-1-0.447-1-1v-8
		C9,70.447,9.448,70,10,70z"/>
</g>
<polyline id="Path-21" fill="none" stroke="#FFFFFF" stroke-width="2" stroke-linecap="round" stroke-linejoin="round" points="
	143.5,42.5 148,46 154.5,37 "/>
</svg>
