<?xml version="1.0" encoding="utf-8"?>
<!-- Generator: Adobe Illustrator 16.0.0, SVG Export Plug-In . SVG Version: 6.00 Build 0)  -->
<!DOCTYPE svg PUBLIC "-//W3C//DTD SVG 1.1//EN" "http://www.w3.org/Graphics/SVG/1.1/DTD/svg11.dtd">
<svg version="1.1" id="Layer_1" xmlns="http://www.w3.org/2000/svg" xmlns:xlink="http://www.w3.org/1999/xlink" x="0px" y="0px"
	 width="180px" height="180px" viewBox="0 0 180 180" enable-background="new 0 0 180 180" xml:space="preserve">
<rect id="Rectangle-10" fill="none" width="180" height="180"/>
<path id="Rectangle-8_33_" fill="#FFFFFF" stroke="#3D75BA" stroke-width="2" d="M20.809,18.991l31.514-5.557
	c2.175-0.384,4.25,1.069,4.634,3.245l3.473,19.696c0.384,2.175-1.069,4.25-3.245,4.634l-31.514,5.557
	c-2.176,0.384-4.25-1.069-4.634-3.245l-3.473-19.696C17.181,21.45,18.634,19.375,20.809,18.991z"/>
<path id="Rectangle-8_32_" fill="#FFFFFF" stroke="#3D75BA" stroke-width="2" d="M23,22h32c2.209,0,4,1.791,4,4v20
	c0,2.209-1.791,4-4,4H23c-2.209,0-4-1.791-4-4V26C19,23.791,20.791,22,23,22z"/>
<path id="Rectangle-6_59_" fill="#D7DBEA" d="M25,29h4c0.552,0,1,0.448,1,1l0,0c0,0.552-0.448,1-1,1h-4c-0.552,0-1-0.448-1-1l0,0
	C24,29.448,24.448,29,25,29z"/>
<path id="Rectangle-6_58_" fill="#D7DBEA" d="M25,34h14c0.552,0,1,0.448,1,1l0,0c0,0.552-0.448,1-1,1H25c-0.552,0-1-0.448-1-1l0,0
	C24,34.448,24.448,34,25,34z"/>
<path id="Rectangle-6_57_" fill="#D7DBEA" d="M33,29h4c0.552,0,1,0.448,1,1l0,0c0,0.552-0.448,1-1,1h-4c-0.552,0-1-0.448-1-1l0,0
	C32,29.448,32.448,29,33,29z"/>
<path id="Rectangle-6_56_" fill="#D7DBEA" d="M41,29h4c0.552,0,1,0.448,1,1l0,0c0,0.552-0.448,1-1,1h-4c-0.552,0-1-0.448-1-1l0,0
	C40,29.448,40.448,29,41,29z"/>
<path id="Rectangle-6_55_" fill="#D7DBEA" d="M49,29h4c0.552,0,1,0.448,1,1l0,0c0,0.552-0.448,1-1,1h-4c-0.552,0-1-0.448-1-1l0,0
	C48,29.448,48.448,29,49,29z"/>
<circle id="Oval-6_23_" fill="#FFD13A" cx="50.5" cy="42.5" r="3.5"/>
<circle id="Oval-6_22_" fill="#FF693A" cx="46.5" cy="42.5" r="3.5"/>
<path id="Rectangle-8_22_" fill="#FFFFFF" stroke="#3D75BA" stroke-width="2" d="M140,47h32c2.209,0,4,1.791,4,4v20
	c0,2.209-1.791,4-4,4h-32c-2.209,0-4-1.791-4-4V51C136,48.791,137.791,47,140,47z"/>
<circle id="Oval-8_11_" fill="#3D75BA" cx="148.5" cy="68.5" r="3.5"/>
<path id="Rectangle-9_11_" fill="#3D75BA" d="M140.758,67.468c0.135-0.535,0.693-0.968,1.232-0.968h4.02
	c0.547,0,0.99,0.443,0.99,1.009v1.981c0,0.557-0.438,1.009-1.003,1.009h-4.994c-0.554,0-0.896-0.428-0.761-0.968L140.758,67.468z"/>
<path id="Path-4_11_" fill="#FFFFFF" stroke="#3D75BA" stroke-width="2" d="M136,56h40"/>
<path id="Oval-5_1_" fill="none" stroke="#585D75" stroke-width="2" stroke-linecap="round" d="M36.411,58.8
	c-1.898,3.252-3.508,6.693-4.795,10.288 M29.524,76.276C28.526,80.69,28,85.283,28,90c0,12.584,3.749,24.291,10.19,34.068
	 M100.885,151.048c22.229-3.937,40.364-19.716,47.658-40.584 M150.676,102.807C151.543,98.674,152,94.391,152,90
	c0-1.728-0.07-3.438-0.209-5.13 M128.629,41.502C118.033,33.051,104.605,28,90,28c-6.285,0-12.352,0.935-18.068,2.674"/>
<path id="Combined-Shape_20_" fill="#F2F6FC" stroke="#585D75" stroke-width="2" stroke-linecap="round" stroke-linejoin="round" d="
	M88,141v-4.003c0-2.203-1.795-3.997-4.01-3.997H44.01c-2.216,0-4.01,1.789-4.01,3.997v20.006c0,2.203,1.795,3.997,4.01,3.997h39.98
	c2.216,0,4.01-1.789,4.01-3.997V153c-3.313,0-6-2.688-6-6S84.687,141,88,141z"/>
<path id="Rectangle-8_12_" fill="#FFFFFF" d="M40,136.997c0-2.208,1.785-3.997,3.995-3.997H77v28H43.995
	c-2.206,0-3.995-1.794-3.995-3.997V136.997z"/>
<path id="Combined-Shape_19_" fill="#FFFFFF" stroke="#3D75BA" stroke-width="2" d="M88,141v-4.003c0-2.203-1.795-3.997-4.01-3.997
	H44.01c-2.216,0-4.01,1.789-4.01,3.997v20.006c0,2.203,1.795,3.997,4.01,3.997h39.98c2.216,0,4.01-1.789,4.01-3.997V153
	c-3.313,0-6-2.688-6-6S84.687,141,88,141z"/>
<path id="Path-25_9_" fill="none" stroke="#3D75BA" stroke-width="2" stroke-linecap="round" stroke-linejoin="round" stroke-dasharray="1,4" d="
	M77,133v28"/>
<text transform="matrix(1 0 0 1 45 150.5)" fill="#3D75BA" font-family="'OpenSans-SemiBold'" font-size="10">CASH</text>
<polyline id="Path-26" fill="#FFFFFF" stroke="#3D75BA" stroke-width="2" points="165,47 165,61.5 165,75 "/>
<g id="Group-24" transform="translate(165.000000, 56.000000) rotate(20.000000) translate(-165.000000, -56.000000) translate(152.000000, 50.000000)">
	<path id="Path-27" fill="#FFFFFF" stroke="#3D75BA" stroke-width="2" stroke-linecap="round" stroke-linejoin="round" d="M14,4.5
		l0.001,3l6.929,3.175c2.801,1.284,5.071-0.169,5.07-3.238l0.001-3.872c0-3.073-2.2-4.372-4.898-2.911L14,4.5z"/>
	<path id="Path-27_1_" fill="#FFFFFF" stroke="#3D75BA" stroke-width="2" stroke-linecap="round" stroke-linejoin="round" d="
		M11.999,4.5L12,7.5l-6.928,3.175C2.27,11.959-0.002,10.506,0,7.436l0-3.872c0-3.073,2.2-4.372,4.897-2.911L11.999,4.5z"/>
	<path id="Path-28" fill="none" stroke="#3D75BA" stroke-width="2" stroke-linecap="round" d="M6,6l14,0"/>
	<circle id="Oval-10" fill="#FFFFFF" stroke="#3D75BA" stroke-width="2" cx="13.001" cy="6" r="4"/>
</g>
<path fill="#3D75BA" d="M80.581,98.209c0.338-0.846,0.677-1.692,0.677-2.538c0-2.878-2.2-5.078-5.078-5.078
	c0-1.015-0.677-1.692-1.692-1.692c-1.016,0-1.693,0.677-1.693,1.692H69.41c-1.016,0-1.692,0.678-1.692,1.692
	c0,1.016,0.677,1.692,1.692,1.692v10.155c-1.016,0-1.692,0.677-1.692,1.691c0,1.017,0.677,1.693,1.692,1.693h3.385
	c0,1.016,0.677,1.693,1.693,1.693c1.015,0,1.692-0.678,1.692-1.693h1.693c2.877,0,5.077-2.199,5.077-5.077
	C82.95,100.579,81.935,99.056,80.581,98.209z M72.795,93.978h3.385c1.016,0,1.693,0.679,1.693,1.693s-0.677,1.692-1.693,1.692
	h-3.385V93.978z M77.873,104.133h-5.078v-3.386h5.078c1.015,0,1.692,0.678,1.692,1.693S78.888,104.133,77.873,104.133z"/>
<path fill="#3D75BA" d="M111.215,72.991c0.339-1.354,0.508-2.877,0.508-4.4c0-12.186-9.816-22.002-22.002-22.002
	c-12.187,0-22.003,9.816-22.003,22.002c0,3.216,0.677,6.262,2.031,8.97c-9.816,2.2-17.263,11.001-17.263,21.495
	c0,12.187,9.816,22.002,22.002,22.002c7.277,0,13.709-3.555,17.771-9.139c3.554,2.538,7.954,4.062,12.693,4.062
	c12.186,0,22.002-9.816,22.002-22.003C126.955,83.992,120.354,75.699,111.215,72.991z M71.103,68.59
	c0-10.324,8.293-18.618,18.618-18.618c10.324,0,18.617,8.293,18.617,18.618c0,1.185-0.169,2.369-0.339,3.554
	c-1.016,0-2.03-0.169-3.046-0.169c-0.17,0-0.339,0-0.339,0c0.339-1.016,0.339-2.2,0.339-3.385c0-8.462-6.77-15.232-15.232-15.232
	c-8.462,0-15.232,6.77-15.232,15.232c0,3.216,1.015,6.262,2.708,8.632c-0.846-0.17-1.861-0.17-2.708-0.17c-0.508,0-0.846,0-1.354,0
	C71.949,74.514,71.103,71.637,71.103,68.59z M89.213,78.576c-0.677,0.846-1.354,1.523-2.031,2.37
	c-2.201-1.523-4.739-2.708-7.448-3.385c-2.2-2.2-3.554-5.416-3.554-8.97c0-7.447,6.093-13.54,13.541-13.54
	c7.446,0,13.54,6.093,13.54,13.54c0,1.185-0.169,2.369-0.508,3.554c-2.369,0.169-4.569,0.846-6.601,1.692
	C92.752,75.417,89.213,78.576,89.213,78.576z M86.335,105.655c-2.37,4.231-6.77,6.94-11.847,6.94
	c-7.447,0-13.541-6.093-13.541-13.54c0-7.448,6.094-13.541,13.541-13.541c3.554,0,6.601,1.354,8.97,3.555
	c-0.339,1.522-0.508,3.215-0.508,4.907C82.95,98.209,84.135,102.271,86.335,105.655z M74.488,117.673
	c-10.325,0-18.618-8.294-18.618-18.617c0-10.325,8.292-18.618,18.618-18.618c4.062,0,7.785,1.354,10.832,3.554
	c-0.507,1.017-1.016,2.032-1.354,3.217c-2.539-2.031-5.923-3.386-9.478-3.386c-8.463,0-15.233,6.77-15.233,15.233
	c0,8.462,6.77,15.232,15.233,15.232c5.416,0,10.155-2.878,12.863-7.108c0.677,1.015,1.523,1.862,2.37,2.707
	C86.335,114.457,80.75,117.673,74.488,117.673z M104.953,112.596c-10.324,0-18.618-8.293-18.618-18.618
	c0-10.324,8.293-18.617,18.618-18.617s18.617,8.293,18.617,18.617C123.57,104.303,115.277,112.596,104.953,112.596z"/>
<path fill="#3D75BA" d="M104.953,78.746c-8.463,0-15.232,6.77-15.232,15.232c0,8.463,6.77,15.233,15.232,15.233
	s15.232-6.771,15.232-15.233C120.186,85.515,113.416,78.746,104.953,78.746z M104.953,107.518c-7.447,0-13.54-6.093-13.54-13.54
	s6.093-13.54,13.54-13.54s13.539,6.093,13.539,13.54S112.4,107.518,104.953,107.518z"/>
<polygon fill="#3D75BA" points="98.184,92.285 104.953,95.671 111.723,92.285 104.953,83.823 "/>
<polygon fill="#3D75BA" points="98.184,93.978 104.953,104.133 111.723,93.978 104.953,97.363 "/>
<g>
	<polygon fill="#3D75BA" stroke="#3D75BA" stroke-miterlimit="10" points="87.094,57.91 84.313,74.897 95.594,74.897 95.594,71.964 
		88.637,71.964 90.836,57.91 	"/>
	<polygon fill="#3D75BA" stroke="#3D75BA" stroke-miterlimit="10" points="92.866,60.467 92.473,62.822 83.85,67.01 84.247,64.634 	
		"/>
</g>
</svg>
