<?xml version="1.0" encoding="utf-8"?>
<!-- Generator: Adobe Illustrator 16.0.0, SVG Export Plug-In . SVG Version: 6.00 Build 0)  -->
<!DOCTYPE svg PUBLIC "-//W3C//DTD SVG 1.1//EN" "http://www.w3.org/Graphics/SVG/1.1/DTD/svg11.dtd">
<svg version="1.1" id="Layer_1" xmlns="http://www.w3.org/2000/svg" xmlns:xlink="http://www.w3.org/1999/xlink" x="0px" y="0px"
	 width="612px" height="284.985px" viewBox="0 250.098 612 284.985" enable-background="new 0 250.098 612 284.985"
	 xml:space="preserve">
<path fill="#FFFFFF" d="M142.523,497.999c56.244,0,102-45.756,102-102c0-56.243-45.756-102-102-102s-102,45.757-102,102
	C40.523,452.243,86.28,497.999,142.523,497.999 M142.523,517.999c-67.377,0-121.999-54.619-121.999-122
	c0-67.379,54.622-121.998,121.999-121.998c67.379,0,122.001,54.619,122.001,121.998C264.524,463.38,209.903,517.999,142.523,517.999
	L142.523,517.999L142.523,517.999z"/>
<path fill="#FFFFFF" d="M169.121,450.843h-20.348c-7.519,0-14.532-1.416-21.036-4.26c-6.51-2.84-12.236-6.689-17.186-11.549
	c-4.951-4.854-8.848-10.584-11.687-17.185c-2.845-6.6-4.263-13.653-4.263-21.174c0-7.328,1.418-14.295,4.263-20.895
	c2.839-6.6,6.736-12.326,11.687-17.187c4.949-4.854,10.676-8.704,17.186-11.547c6.504-2.841,13.517-4.262,21.036-4.262h20.348
	c4.766,0,8.799-1.693,12.1-5.088c3.299-3.39,4.949-7.466,4.949-12.236c0-4.764-1.65-8.797-4.949-12.096
	c-3.301-3.301-7.334-4.949-12.1-4.949h-20.348c-12.098,0-23.51,2.336-34.235,7.011c-10.724,4.675-20.104,10.997-28.13,18.972
	c-8.03,7.975-14.401,17.322-19.111,28.045c-4.713,10.723-7.067,22.133-7.067,34.23c0,12.283,2.354,23.785,7.067,34.508
	c4.709,10.724,11.081,20.072,19.111,28.045c8.025,7.976,17.406,14.3,28.13,18.974c10.725,4.674,22.137,7.01,34.235,7.01h20.348
	c4.766,0,8.799-1.648,12.1-4.949c3.299-3.297,4.949-7.328,4.949-12.098c0-4.764-1.65-8.84-4.949-12.234
	C177.92,452.54,173.887,450.843,169.121,450.843L169.121,450.843L169.121,450.843z"/>
<path fill="#FFFFFF" d="M168.322,369.488h-7.469h-27.542h-8.147c-1.681,0-3.104,0.599-4.267,1.794
	c-1.163,1.197-1.746,2.635-1.746,4.316c0,1.684,0.583,3.104,1.746,4.27c1.164,1.163,2.586,1.746,4.267,1.746h8.147h7.371v44.328
	c0,1.682,0.581,3.104,1.746,4.268c1.164,1.164,2.584,1.746,4.268,1.746c1.679,0,3.117-0.582,4.313-1.746
	c1.197-1.164,1.795-2.586,1.795-4.268v-44.328h8.049h7.469c1.68,0,3.104-0.583,4.267-1.746c1.163-1.166,1.746-2.586,1.746-4.27
	c0-1.682-0.583-3.119-1.746-4.316C171.426,370.087,170.001,369.488,168.322,369.488L168.322,369.488L168.322,369.488z"/>
<path fill="#FFFFFF" d="M396.5,350.478h-19.684c-7.275,0-14.058,1.375-20.351,4.123c-6.297,2.75-11.836,6.477-16.625,11.172
	c-4.789,4.699-8.559,10.241-11.307,16.625c-2.75,6.385-4.123,13.125-4.123,20.215c0,7.272,1.373,14.1,4.123,20.481
	c2.748,6.386,6.518,11.931,11.307,16.625c4.789,4.701,10.328,8.426,16.625,11.172c6.293,2.752,13.074,4.123,20.351,4.123H396.5
	c4.609,0,8.512,1.644,11.703,4.922c3.191,3.283,4.787,7.228,4.787,11.839c0,4.61-1.597,8.51-4.787,11.702
	c-3.191,3.193-7.094,4.789-11.703,4.789h-19.684c-11.705,0-22.744-2.264-33.117-6.782c-10.373-4.521-19.447-10.642-27.211-18.355
	c-7.769-7.713-13.932-16.758-18.487-27.133c-4.56-10.373-6.837-21.498-6.837-33.383c0-11.702,2.278-22.742,6.837-33.116
	c4.555-10.374,10.719-19.419,18.487-27.132c7.764-7.713,16.838-13.831,27.211-18.354c10.373-4.523,21.412-6.783,33.117-6.783H396.5
	c4.609,0,8.512,1.596,11.703,4.788c3.191,3.191,4.787,7.095,4.787,11.704c0,4.612-1.597,8.559-4.787,11.838
	C405.012,348.841,401.109,350.478,396.5,350.478L396.5,350.478z M586.688,345.157c-3.19,3.191-7.096,4.788-11.704,4.788H554.5
	h-22.076v121.562c0,4.615-1.643,8.515-4.922,11.705c-3.283,3.191-7.227,4.787-11.838,4.787c-4.613,0-8.51-1.596-11.703-4.787
	c-3.193-3.19-4.789-7.09-4.789-11.705V349.945h-20.215h-22.346c-4.611,0-8.511-1.597-11.703-4.788
	c-3.191-3.191-4.789-7.09-4.789-11.704c0-4.608,1.598-8.554,4.789-11.837c3.192-3.279,7.092-4.92,11.703-4.92h22.346H554.5h20.482
	c4.608,0,8.514,1.641,11.705,4.92c3.19,3.283,4.786,7.229,4.786,11.837C591.475,338.067,589.879,341.966,586.688,345.157
	L586.688,345.157z"/>
</svg>
