<?xml version="1.0" encoding="utf-8"?>
<!-- Generator: Adobe Illustrator 16.0.0, SVG Export Plug-In . SVG Version: 6.00 Build 0)  -->
<!DOCTYPE svg PUBLIC "-//W3C//DTD SVG 1.1//EN" "http://www.w3.org/Graphics/SVG/1.1/DTD/svg11.dtd">
<svg version="1.1" id="Layer_1" xmlns="http://www.w3.org/2000/svg" xmlns:xlink="http://www.w3.org/1999/xlink" x="0px" y="0px"
	 width="708px" height="448px" viewBox="0 0 708 448" enable-background="new 0 0 708 448" xml:space="preserve">
<g>
	<g>
		<defs>
			<path id="SVGID_1_" d="M198.05,324.999c56.244,0,102-45.758,102-102c0-56.244-45.756-102-102-102s-102,45.756-102,102
				C96.05,279.241,141.806,324.999,198.05,324.999 M198.05,344.998c-67.377,0-121.999-54.619-121.999-121.999
				C76.051,155.618,130.673,101,198.05,101c67.379,0,122.001,54.618,122.001,121.999
				C320.051,290.379,265.429,344.998,198.05,344.998L198.05,344.998L198.05,344.998z"/>
		</defs>
		<use xlink:href="#SVGID_1_"  overflow="visible" fill="#FFFFFF"/>
		<clipPath id="SVGID_2_">
			<use xlink:href="#SVGID_1_"  overflow="visible"/>
		</clipPath>
		<g clip-path="url(#SVGID_2_)">
		</g>
	</g>
</g>
<g>
	<g>
		<defs>
			<path id="SVGID_3_" d="M224.647,277.843h-20.349c-7.519,0-14.532-1.416-21.036-4.261c-6.51-2.84-12.236-6.689-17.186-11.55
				c-4.951-4.854-8.848-10.584-11.688-17.184c-2.845-6.6-4.263-13.653-4.263-21.173c0-7.328,1.418-14.296,4.263-20.896
				c2.84-6.6,6.736-12.326,11.688-17.187c4.949-4.854,10.676-8.704,17.186-11.546c6.504-2.842,13.518-4.263,21.036-4.263h20.349
				c4.766,0,8.799-1.692,12.1-5.088c3.299-3.39,4.949-7.466,4.949-12.235c0-4.766-1.65-8.798-4.949-12.098
				c-3.301-3.301-7.334-4.948-12.1-4.948h-20.349c-12.099,0-23.51,2.337-34.235,7.012c-10.724,4.674-20.104,10.996-28.13,18.972
				c-8.03,7.975-14.401,17.322-19.11,28.045c-4.713,10.724-7.067,22.133-7.067,34.23c0,12.283,2.354,23.785,7.067,34.508
				c4.709,10.723,11.08,20.071,19.11,28.045c8.025,7.975,17.406,14.298,28.13,18.973c10.726,4.675,22.137,7.011,34.235,7.011h20.349
				c4.766,0,8.799-1.648,12.1-4.949c3.299-3.298,4.949-7.328,4.949-12.099c0-4.764-1.65-8.84-4.949-12.233
				C233.446,279.54,229.413,277.843,224.647,277.843L224.647,277.843L224.647,277.843z"/>
		</defs>
		<use xlink:href="#SVGID_3_"  overflow="visible" fill="#FFFFFF"/>
		<clipPath id="SVGID_4_">
			<use xlink:href="#SVGID_3_"  overflow="visible"/>
		</clipPath>
		<g clip-path="url(#SVGID_4_)">
		</g>
	</g>
</g>
<g>
	<g>
		<defs>
			<path id="SVGID_5_" d="M223.848,196.487h-7.469h-27.542h-8.146c-1.682,0-3.104,0.6-4.268,1.795
				c-1.163,1.197-1.746,2.636-1.746,4.316c0,1.684,0.583,3.104,1.746,4.27c1.164,1.162,2.586,1.745,4.268,1.745h8.146h7.371v44.328
				c0,1.683,0.581,3.104,1.746,4.269c1.164,1.165,2.584,1.747,4.268,1.747c1.68,0,3.117-0.582,4.313-1.747
				c1.197-1.164,1.796-2.586,1.796-4.269v-44.328h8.049h7.469c1.681,0,3.104-0.583,4.267-1.745c1.164-1.166,1.746-2.586,1.746-4.27
				c0-1.682-0.582-3.119-1.746-4.316C226.952,197.086,225.528,196.487,223.848,196.487L223.848,196.487L223.848,196.487z"/>
		</defs>
		<use xlink:href="#SVGID_5_"  overflow="visible" fill="#FFFFFF"/>
		<clipPath id="SVGID_6_">
			<use xlink:href="#SVGID_5_"  overflow="visible"/>
		</clipPath>
		<g clip-path="url(#SVGID_6_)">
		</g>
	</g>
</g>
<g>
	<g>
		<defs>
			<path id="SVGID_7_" d="M452.026,177.477h-19.684c-7.275,0-14.057,1.376-20.35,4.123c-6.297,2.751-11.836,6.477-16.625,11.173
				c-4.789,4.699-8.56,10.24-11.308,16.624c-2.75,6.386-4.123,13.125-4.123,20.216c0,7.273,1.373,14.101,4.123,20.482
				c2.748,6.385,6.519,11.929,11.308,16.624c4.789,4.702,10.328,8.426,16.625,11.173c6.293,2.751,13.073,4.123,20.35,4.123h19.684
				c4.609,0,8.513,1.643,11.703,4.922c3.191,3.283,4.787,7.228,4.787,11.837c0,4.612-1.596,8.511-4.787,11.703
				c-3.19,3.193-7.094,4.789-11.703,4.789h-19.684c-11.705,0-22.744-2.263-33.117-6.782c-10.373-4.521-19.447-10.642-27.211-18.354
				c-7.768-7.714-13.932-16.76-18.486-27.133c-4.561-10.373-6.838-21.499-6.838-33.384c0-11.703,2.277-22.741,6.838-33.116
				c4.556-10.373,10.72-19.419,18.486-27.133c7.764-7.713,16.838-13.83,27.211-18.354c10.373-4.521,21.412-6.782,33.117-6.782
				h19.684c4.609,0,8.513,1.596,11.703,4.788c3.191,3.191,4.787,7.094,4.787,11.704c0,4.611-1.596,8.558-4.787,11.837
				C460.538,175.84,456.636,177.477,452.026,177.477L452.026,177.477z M642.214,172.156c-3.191,3.191-7.096,4.787-11.705,4.787
				h-20.482H587.95v121.563c0,4.613-1.644,8.513-4.922,11.704c-3.283,3.191-7.228,4.788-11.839,4.788
				c-4.612,0-8.51-1.597-11.702-4.788c-3.193-3.191-4.789-7.091-4.789-11.704V176.944h-20.216h-22.346
				c-4.611,0-8.51-1.596-11.703-4.787c-3.19-3.19-4.789-7.091-4.789-11.704c0-4.607,1.599-8.555,4.789-11.838
				c3.193-3.278,7.092-4.92,11.703-4.92h22.346h75.543h20.482c4.609,0,8.514,1.642,11.705,4.92c3.19,3.283,4.787,7.229,4.787,11.838
				C647.001,165.066,645.405,168.966,642.214,172.156L642.214,172.156z"/>
		</defs>
		<use xlink:href="#SVGID_7_"  overflow="visible" fill="#FFFFFF"/>
		<clipPath id="SVGID_8_">
			<use xlink:href="#SVGID_7_"  overflow="visible"/>
		</clipPath>
		<g clip-path="url(#SVGID_8_)">
		</g>
	</g>
</g>
</svg>
