<?xml version="1.0" encoding="utf-8"?>
<!-- Generator: Adobe Illustrator 16.0.0, SVG Export Plug-In . SVG Version: 6.00 Build 0)  -->
<!DOCTYPE svg PUBLIC "-//W3C//DTD SVG 1.1//EN" "http://www.w3.org/Graphics/SVG/1.1/DTD/svg11.dtd">
<svg version="1.1" id="Layer_1" xmlns="http://www.w3.org/2000/svg" xmlns:xlink="http://www.w3.org/1999/xlink" x="0px" y="0px"
	 width="576px" height="286px" viewBox="0 0 576 286" enable-background="new 0 0 576 286" xml:space="preserve">
<path fill="#192B4D" d="M134.604,247.404c56.244,0,102-45.755,102-101.999c0-56.243-45.756-102-102-102s-102,45.757-102,102
	C32.604,201.649,78.36,247.404,134.604,247.404 M134.604,267.404c-67.377,0-121.999-54.618-121.999-121.999
	c0-67.38,54.622-121.998,121.999-121.998c67.379,0,122.001,54.618,122.001,121.998C256.605,212.787,201.983,267.404,134.604,267.404
	L134.604,267.404L134.604,267.404z"/>
<path fill="#192B4D" d="M134.604,222.486c41.952,0,76.082-34.129,76.082-76.081c0-41.952-34.129-76.082-76.082-76.082
	c-41.953,0-76.082,34.13-76.082,76.082C58.522,188.357,92.652,222.486,134.604,222.486 M134.604,237.404
	c-50.257,0-90.999-40.739-90.999-90.999c0-50.258,40.742-90.998,90.999-90.998c50.258,0,91,40.74,91,90.998
	C225.604,196.665,184.862,237.404,134.604,237.404L134.604,237.404L134.604,237.404z"/>
<path fill="#192B4D" d="M134.604,193.999c26.244,0,47.594-21.35,47.594-47.594c0-26.244-21.35-47.594-47.594-47.594
	S87.01,120.162,87.01,146.405C87.01,172.649,108.36,193.999,134.604,193.999 M134.604,203.332
	c-31.439,0-56.926-25.485-56.926-56.927c0-31.44,25.487-56.925,56.926-56.925c31.44,0,56.927,25.485,56.927,56.925
	C191.531,177.847,166.044,203.332,134.604,203.332L134.604,203.332L134.604,203.332z"/>
<path fill="#192B4D" d="M548.581,99.884h-19.685c-7.274,0-14.057,1.375-20.35,4.123c-6.297,2.75-11.836,6.477-16.625,11.172
	c-4.789,4.699-8.559,10.241-11.307,16.625c-2.75,6.385-4.123,13.125-4.123,20.215c0,7.273,1.373,14.101,4.123,20.482
	c2.748,6.385,6.518,11.93,11.307,16.625c4.789,4.701,10.328,8.426,16.625,11.172c6.293,2.752,13.074,4.123,20.35,4.123h19.685
	c4.608,0,8.512,1.643,11.703,4.922c3.19,3.283,4.786,7.226,4.786,11.837s-1.596,8.51-4.786,11.703
	c-3.191,3.193-7.095,4.789-11.703,4.789h-19.685c-11.705,0-22.744-2.264-33.117-6.783c-10.372-4.521-19.446-10.641-27.211-18.354
	c-7.768-7.714-13.932-16.759-18.486-27.134c-4.561-10.373-6.837-21.498-6.837-33.383c0-11.702,2.278-22.742,6.837-33.116
	c4.555-10.374,10.719-19.419,18.486-27.132c7.765-7.713,16.839-13.831,27.211-18.354c10.373-4.523,21.412-6.783,33.117-6.783h19.685
	c4.608,0,8.512,1.596,11.703,4.788c3.19,3.19,4.786,7.095,4.786,11.704c0,4.611-1.596,8.559-4.786,11.838
	C557.092,98.248,553.189,99.884,548.581,99.884L548.581,99.884z M418.768,94.563c-3.19,3.191-7.096,4.788-11.705,4.788h-20.481
	h-22.076v121.562c0,4.614-1.644,8.514-4.922,11.705c-3.283,3.19-7.228,4.786-11.838,4.786c-4.613,0-8.511-1.596-11.703-4.786
	c-3.192-3.191-4.789-7.091-4.789-11.705V99.352h-20.215h-22.346c-4.611,0-8.51-1.597-11.703-4.788
	c-3.191-3.19-4.789-7.09-4.789-11.704c0-4.607,1.598-8.554,4.789-11.837c3.193-3.278,7.092-4.92,11.703-4.92h22.346h75.543h20.481
	c4.609,0,8.515,1.642,11.705,4.92c3.191,3.283,4.787,7.229,4.787,11.837C423.555,87.474,421.959,91.373,418.768,94.563
	L418.768,94.563z"/>
</svg>
